<?xml version="1.0" encoding="UTF-8"?>
<svg width="800" height="200" viewBox="0 0 800 200" xmlns="http://www.w3.org/2000/svg">
  <defs>
    <linearGradient id="glass-gradient" x1="0%" y1="0%" x2="100%" y2="100%">
      <stop offset="0%" style="stop-color:rgba(255,255,255,0.08);stop-opacity:1" />
      <stop offset="100%" style="stop-color:rgba(255,255,255,0.02);stop-opacity:1" />
    </linearGradient>
    <linearGradient id="accent-gradient" x1="0%" y1="0%" x2="100%" y2="100%">
      <stop offset="0%" style="stop-color:#34d399;stop-opacity:0.95" />
      <stop offset="100%" style="stop-color:#059669;stop-opacity:0.95" />
    </linearGradient>
  </defs>
  
  <!-- Main Container -->
  <rect x="0" y="0" width="800" height="200" rx="20" fill="url(#glass-gradient)" stroke="rgba(52,211,153,0.3)" stroke-width="2"/>
  
  <!-- Branch Header -->
  <circle cx="40" cy="40" r="8" fill="#34d399"/>
  <path d="M 35 35 L 40 40 L 45 35 M 40 40 L 40 50" stroke="#090a0b" stroke-width="2" fill="none"/>
  <text x="60" y="45" fill="rgba(209,213,219,0.9)" font-family="JetBrains Mono, monospace" font-size="14" font-weight="500">Branch Thread</text>
  
  <!-- Rich Text Toolbar -->
  <rect x="20" y="60" width="760" height="35" rx="8" fill="rgba(15,23,42,0.2)" stroke="rgba(255,255,255,0.05)" stroke-width="1"/>
  
  <!-- Toolbar Icons -->
  <rect x="30" y="67" width="21" height="21" rx="3" fill="rgba(255,255,255,0.1)"/>
  <text x="40" y="79" text-anchor="middle" fill="rgba(209,213,219,0.9)" font-family="JetBrains Mono, monospace" font-size="10" font-weight="bold">B</text>
  
  <rect x="55" y="67" width="21" height="21" rx="3" fill="rgba(255,255,255,0.1)"/>
  <text x="65" y="79" text-anchor="middle" fill="rgba(209,213,219,0.9)" font-family="JetBrains Mono, monospace" font-size="10" font-style="italic">I</text>
  
  <rect x="80" y="67" width="21" height="21" rx="3" fill="rgba(255,255,255,0.1)"/>
  <text x="90" y="79" text-anchor="middle" fill="rgba(209,213,219,0.9)" font-family="JetBrains Mono, monospace" font-size="10" text-decoration="underline">U</text>
  
  <rect x="105" y="67" width="21" height="21" rx="3" fill="rgba(255,255,255,0.1)"/>
  <text x="115" y="79" text-anchor="middle" fill="rgba(209,213,219,0.9)" font-family="JetBrains Mono, monospace" font-size="10">S</text>
  
  <rect x="130" y="67" width="21" height="21" rx="3" fill="rgba(255,255,255,0.1)"/>
  <text x="140" y="79" text-anchor="middle" fill="rgba(209,213,219,0.9)" font-family="JetBrains Mono, monospace" font-size="10">•</text>
  
  <rect x="155" y="67" width="21" height="21" rx="3" fill="rgba(255,255,255,0.1)"/>
  <text x="165" y="79" text-anchor="middle" fill="rgba(209,213,219,0.9)" font-family="JetBrains Mono, monospace" font-size="10">1.</text>
  
  <!-- Content Area -->
  <rect x="20" y="105" width="760" height="50" rx="8" fill="rgba(15,23,42,0.2)" stroke="rgba(255,255,255,0.05)" stroke-width="1"/>
  <text x="30" y="125" fill="rgba(209,213,219,0.9)" font-family="JetBrains Mono, monospace" font-size="12">This resonates deeply with my understanding of quantum consciousness...</text>
  <text x="30" y="145" fill="rgba(107,114,128,0.6)" font-family="JetBrains Mono, monospace" font-size="10">127/10000</text>
  
  <!-- Footer -->
  <circle cx="50" cy="180" r="3" fill="#34d399" opacity="0.6"/>
  <text x="65" y="185" fill="rgba(107,114,128,0.8)" font-family="JetBrains Mono, monospace" font-size="10">Branching from original thought</text>
  
  <rect x="650" y="165" width="120" height="25" rx="12" fill="url(#accent-gradient)"/>
  <circle cx="665" cy="177" r="3" fill="#090a0b"/>
  <path d="M 662 174 L 665 177 L 668 174" stroke="#090a0b" stroke-width="1" fill="none"/>
  <text x="685" y="180" text-anchor="middle" fill="#090a0b" font-family="JetBrains Mono, monospace" font-size="11" font-weight="500">Commit Branch</text>
</svg>